INFO: Created TensorFlow Lite XNNPACK delegate for CPU.
W0000 00:00:1778434178.747629   30852 inference_feedback_manager.cc:121] Feedback manager requires a model with a single signature inference. Disabling support for feedback tensors.
ffmpeg version 8.1.1-full_build-www.gyan.dev Copyright (c) 2000-2026 the FFmpeg developers
  built with gcc 15.2.0 (Rev13, Built by MSYS2 project)
  configuration: --enable-gpl --enable-version3 --enable-static --disable-w32threads --disable-autodetect --enable-cairo --enable-fontconfig --enable-iconv --enable-gnutls --enable-lcms2 --enable-libxml2 --enable-gmp --enable-bzlib --enable-lzma --enable-libsnappy --enable-zlib --enable-librist --enable-libsrt --enable-libssh --enable-libzmq --enable-avisynth --enable-libbluray --enable-libcaca --enable-libdvdnav --enable-libdvdread --enable-sdl2 --enable-libaribb24 --enable-libaribcaption --enable-libdav1d --enable-libdavs2 --enable-libopenjpeg --enable-libquirc --enable-libuavs3d --enable-libxevd --enable-libzvbi --enable-liboapv --enable-libqrencode --enable-librav1e --enable-libsvtav1 --enable-libvvenc --enable-libwebp --enable-libx264 --enable-libx265 --enable-libxavs2 --enable-libxeve --enable-libxvid --enable-libaom --enable-libjxl --enable-libsvtjpegxs --enable-libvpx --enable-mediafoundation --enable-libass --enable-frei0r --enable-libfreetype --enable-libfribidi --enable-libharfbuzz --enable-liblensfun --enable-libvidstab --enable-libvmaf --enable-libzimg --enable-amf --enable-cuda-llvm --enable-cuvid --enable-dxva2 --enable-d3d11va --enable-d3d12va --enable-ffnvcodec --enable-libvpl --enable-nvdec --enable-nvenc --enable-vaapi --enable-libshaderc --enable-vulkan --enable-libplacebo --enable-opencl --enable-libcdio --enable-openal --enable-libgme --enable-libmodplug --enable-libopenmpt --enable-libopencore-amrwb --enable-libmp3lame --enable-libshine --enable-libtheora --enable-libtwolame --enable-libvo-amrwbenc --enable-libcodec2 --enable-libilbc --enable-libgsm --enable-liblc3 --enable-libopencore-amrnb --enable-libopus --enable-libspeex --enable-libvorbis --enable-ladspa --enable-libbs2b --enable-libflite --enable-libmysofa --enable-librubberband --enable-libsoxr --enable-chromaprint --enable-whisper
  libavutil      60. 26.101 / 60. 26.101
  libavcodec     62. 28.101 / 62. 28.101
  libavformat    62. 12.101 / 62. 12.101
  libavdevice    62.  3.101 / 62.  3.101
  libavfilter    11. 14.101 / 11. 14.101
  libswscale      9.  5.101 /  9.  5.101
  libswresample   6.  3.101 /  6.  3.101
Input #0, avi, from 'C:\Users\Macie\AppData\Local\Temp\face_track_7su96fvt\segment_1_17-47_41_18-35_79_silent.avi':
  Metadata:
    software        : Lavf62.12.101
  Duration: 00:00:48.38, start: 0.000000, bitrate: 13402 kb/s
  Stream #0:0: Video: h264 (High) (H264 / 0x34363248), yuvj420p(pc, bt470bg/unknown/unknown, progressive), 1080x1920 [SAR 1:1 DAR 9:16], 13394 kb/s, 59.94 fps, 59.94 tbr, 59.94 tbn
Input #1, mov,mp4,m4a,3gp,3g2,mj2, from 'C:\Users\Macie\AppData\Local\Temp\face_track_7su96fvt\segment_1_17-47_41_18-35_79_audio.m4a':
  Metadata:
    major_brand     : M4A 
    minor_version   : 512
    compatible_brands: M4A isomiso2
    encoder         : Lavf62.12.101
  Duration: 00:00:48.38, start: 0.000000, bitrate: 202 kb/s
  Stream #1:0[0x1](eng): Audio: aac (LC) (mp4a / 0x6134706D), 48000 Hz, stereo, fltp, 201 kb/s (default)
    Metadata:
      handler_name    : SoundHandler
Stream mapping:
  Stream #0:0 -> #0:0 (h264 (native) -> h264 (libx264))
  Stream #1:0 -> #0:1 (aac (native) -> aac (native))
Press [q] to stop, [?] for help
[swscaler @ 00000281294d4d80] deprecated pixel format used, make sure you did set range correctly
[libx264 @ 0000028127960300] using SAR=1/1
[libx264 @ 0000028127960300] using cpu capabilities: MMX2 SSE2Fast SSSE3 SSE4.2 AVX FMA3 BMI2 AVX2 AVX512
[libx264 @ 0000028127960300] profile High, level 4.2, 4:2:0, 8-bit
[libx264 @ 0000028127960300] 264 - core 165 r3223 0480cb0 - H.264/MPEG-4 AVC codec - Copyleft 2003-2025 - http://www.videolan.org/x264.html - options: cabac=1 ref=1 deblock=1:0:0 analyse=0x3:0x3 me=dia subme=1 psy=1 psy_rd=1.00:0.00 mixed_ref=0 me_range=16 chroma_me=1 trellis=0 8x8dct=1 cqm=0 deadzone=21,11 fast_pskip=1 chroma_qp_offset=0 threads=24 lookahead_threads=4 sliced_threads=0 nr=0 decimate=1 interlaced=0 bluray_compat=0 constrained_intra=0 bframes=3 b_pyramid=2 b_adapt=1 b_bias=0 direct=1 weightb=1 open_gop=0 weightp=1 keyint=250 keyint_min=25 scenecut=40 intra_refresh=0 rc=crf mbtree=0 crf=23.0 qcomp=0.60 qpmin=0 qpmax=69 qpstep=4 ip_ratio=1.40 pb_ratio=1.30 aq=1:1.00
Output #0, mp4, to 'D:\PythonProjects\viral-cutter-ai\benchmarks\runs\20260510_171633\emeritos_gameplay\compare_podcast\cuts_raw\segment_1_17-47_41_18-35_79.mp4':
  Metadata:
    software        : Lavf62.12.101
    encoder         : Lavf62.12.101
  Stream #0:0: Video: h264 (avc1 / 0x31637661), yuv420p(pc, bt470bg/unknown/unknown, progressive), 1080x1920 [SAR 1:1 DAR 9:16], q=2-31, 59.94 fps, 60k tbn
    Metadata:
      encoder         : Lavc62.28.101 libx264
    Side data:
      CPB properties: bitrate max/min/avg: 0/0/0 buffer size: 0 vbv_delay: N/A
  Stream #0:1(eng): Audio: aac (LC) (mp4a / 0x6134706D), 48000 Hz, stereo, fltp, 192 kb/s (default)
    Metadata:
      encoder         : Lavc62.28.101 aac
      handler_name    : SoundHandler
frame=  233 fps=0.0 q=25.0 size=    3840KiB time=00:00:03.88 bitrate=8092.6kbits/s speed=7.44x elapsed=0:00:00.52    frame=  548 fps=532 q=27.0 size=    7680KiB time=00:00:09.14 bitrate=6881.6kbits/s speed=8.87x elapsed=0:00:01.03    frame=  670 fps=432 q=28.0 size=    9216KiB time=00:00:11.17 bitrate=6754.2kbits/s speed=7.21x elapsed=0:00:01.54    frame=  928 fps=448 q=28.0 size=   13824KiB time=00:00:15.48 bitrate=7314.7kbits/s speed=7.48x elapsed=0:00:02.07    frame= 1228 fps=474 q=28.0 size=   17408KiB time=00:00:20.48 bitrate=6960.8kbits/s speed=7.91x elapsed=0:00:02.59    frame= 1508 fps=487 q=24.0 size=   20736KiB time=00:00:25.15 bitrate=6752.0kbits/s speed=8.13x elapsed=0:00:03.09    frame= 1790 fps=495 q=28.0 size=   24576KiB time=00:00:29.86 bitrate=6741.6kbits/s speed=8.25x elapsed=0:00:03.61    frame= 2091 fps=506 q=27.0 size=   28672KiB time=00:00:34.88 bitrate=6733.0kbits/s speed=8.45x elapsed=0:00:04.13    frame= 2431 fps=523 q=29.0 size=   33024KiB time=00:00:41.13 bitrate=6577.4kbits/s speed=8.85x elapsed=0:00:04.64    frame= 2766 fps=536 q=27.0 size=   39168KiB time=00:00:46.72 bitrate=6867.8kbits/s speed=9.05x elapsed=0:00:05.16    [mp4 @ 0000028127be8b00] Starting second pass: moving the moov atom to the beginning of the file
[out#0/mp4 @ 000002812770f340] video:40233KiB audio:1183KiB subtitle:0KiB other streams:0KiB global headers:0KiB muxing overhead: 0.182465%
frame= 2898 fps=542 q=-1.0 Lsize=   41491KiB time=00:00:48.34 bitrate=7030.2kbits/s speed=9.04x elapsed=0:00:05.34    
[libx264 @ 0000028127960300] frame I:15    Avg QP:19.25  size: 69450
[libx264 @ 0000028127960300] frame P:994   Avg QP:21.09  size: 25098
[libx264 @ 0000028127960300] frame B:1889  Avg QP:22.87  size:  8051
[libx264 @ 0000028127960300] consecutive B-frames:  6.1% 19.3%  4.6% 70.0%
[libx264 @ 0000028127960300] mb I  I16..4: 13.9% 62.1% 24.0%
[libx264 @ 0000028127960300] mb P  I16..4:  9.0% 27.5%  2.6%  P16..4: 31.7%  0.0%  0.0%  0.0%  0.0%    skip:29.2%
[libx264 @ 0000028127960300] mb B  I16..4:  1.8%  3.7%  0.2%  B16..8: 23.5%  0.0%  0.0%  direct: 5.5%  skip:65.4%  L0:43.6% L1:49.4% BI: 7.0%
[libx264 @ 0000028127960300] 8x8 transform intra:68.9% inter:49.9%
[libx264 @ 0000028127960300] coded y,uvDC,uvAC intra: 36.1% 30.5% 6.2% inter: 3.9% 8.8% 0.0%
[libx264 @ 0000028127960300] i16 v,h,dc,p: 37% 36% 10% 16%
[libx264 @ 0000028127960300] i8 v,h,dc,ddl,ddr,vr,hd,vl,hu: 15% 29% 16%  6%  6%  5% 10%  4%  9%
[libx264 @ 0000028127960300] i4 v,h,dc,ddl,ddr,vr,hd,vl,hu: 20% 34% 11%  6%  6%  5%  7%  4%  8%
[libx264 @ 0000028127960300] i8c dc,h,v,p: 52% 24% 16%  8%
[libx264 @ 0000028127960300] Weighted P-Frames: Y:0.6% UV:0.3%
[libx264 @ 0000028127960300] kb/s:6816.90
[aac @ 0000028127707300] Qavg: 612.975
W0000 00:00:1778434241.505160    8676 inference_feedback_manager.cc:121] Feedback manager requires a model with a single signature inference. Disabling support for feedback tensors.
ffmpeg version 8.1.1-full_build-www.gyan.dev Copyright (c) 2000-2026 the FFmpeg developers
  built with gcc 15.2.0 (Rev13, Built by MSYS2 project)
  configuration: --enable-gpl --enable-version3 --enable-static --disable-w32threads --disable-autodetect --enable-cairo --enable-fontconfig --enable-iconv --enable-gnutls --enable-lcms2 --enable-libxml2 --enable-gmp --enable-bzlib --enable-lzma --enable-libsnappy --enable-zlib --enable-librist --enable-libsrt --enable-libssh --enable-libzmq --enable-avisynth --enable-libbluray --enable-libcaca --enable-libdvdnav --enable-libdvdread --enable-sdl2 --enable-libaribb24 --enable-libaribcaption --enable-libdav1d --enable-libdavs2 --enable-libopenjpeg --enable-libquirc --enable-libuavs3d --enable-libxevd --enable-libzvbi --enable-liboapv --enable-libqrencode --enable-librav1e --enable-libsvtav1 --enable-libvvenc --enable-libwebp --enable-libx264 --enable-libx265 --enable-libxavs2 --enable-libxeve --enable-libxvid --enable-libaom --enable-libjxl --enable-libsvtjpegxs --enable-libvpx --enable-mediafoundation --enable-libass --enable-frei0r --enable-libfreetype --enable-libfribidi --enable-libharfbuzz --enable-liblensfun --enable-libvidstab --enable-libvmaf --enable-libzimg --enable-amf --enable-cuda-llvm --enable-cuvid --enable-dxva2 --enable-d3d11va --enable-d3d12va --enable-ffnvcodec --enable-libvpl --enable-nvdec --enable-nvenc --enable-vaapi --enable-libshaderc --enable-vulkan --enable-libplacebo --enable-opencl --enable-libcdio --enable-openal --enable-libgme --enable-libmodplug --enable-libopenmpt --enable-libopencore-amrwb --enable-libmp3lame --enable-libshine --enable-libtheora --enable-libtwolame --enable-libvo-amrwbenc --enable-libcodec2 --enable-libilbc --enable-libgsm --enable-liblc3 --enable-libopencore-amrnb --enable-libopus --enable-libspeex --enable-libvorbis --enable-ladspa --enable-libbs2b --enable-libflite --enable-libmysofa --enable-librubberband --enable-libsoxr --enable-chromaprint --enable-whisper
  libavutil      60. 26.101 / 60. 26.101
  libavcodec     62. 28.101 / 62. 28.101
  libavformat    62. 12.101 / 62. 12.101
  libavdevice    62.  3.101 / 62.  3.101
  libavfilter    11. 14.101 / 11. 14.101
  libswscale      9.  5.101 /  9.  5.101
  libswresample   6.  3.101 /  6.  3.101
Input #0, avi, from 'C:\Users\Macie\AppData\Local\Temp\face_track_acws2sym\segment_2_16-38_20_17-28_11_silent.avi':
  Metadata:
    software        : Lavf62.12.101
  Duration: 00:00:49.92, start: 0.000000, bitrate: 9330 kb/s
  Stream #0:0: Video: h264 (High) (H264 / 0x34363248), yuvj420p(pc, bt470bg/unknown/unknown, progressive), 1080x1920 [SAR 1:1 DAR 9:16], 9320 kb/s, 59.94 fps, 59.94 tbr, 59.94 tbn
Input #1, mov,mp4,m4a,3gp,3g2,mj2, from 'C:\Users\Macie\AppData\Local\Temp\face_track_acws2sym\segment_2_16-38_20_17-28_11_audio.m4a':
  Metadata:
    major_brand     : M4A 
    minor_version   : 512
    compatible_brands: M4A isomiso2
    encoder         : Lavf62.12.101
  Duration: 00:00:49.91, start: 0.000000, bitrate: 197 kb/s
  Stream #1:0[0x1](eng): Audio: aac (LC) (mp4a / 0x6134706D), 48000 Hz, stereo, fltp, 195 kb/s (default)
    Metadata:
      handler_name    : SoundHandler
Stream mapping:
  Stream #0:0 -> #0:0 (h264 (native) -> h264 (libx264))
  Stream #1:0 -> #0:1 (aac (native) -> aac (native))
Press [q] to stop, [?] for help
[swscaler @ 000001aa9bae4e40] deprecated pixel format used, make sure you did set range correctly
[libx264 @ 000001aa97ce40c0] using SAR=1/1
[libx264 @ 000001aa97ce40c0] using cpu capabilities: MMX2 SSE2Fast SSSE3 SSE4.2 AVX FMA3 BMI2 AVX2 AVX512
[libx264 @ 000001aa97ce40c0] profile High, level 4.2, 4:2:0, 8-bit
[libx264 @ 000001aa97ce40c0] 264 - core 165 r3223 0480cb0 - H.264/MPEG-4 AVC codec - Copyleft 2003-2025 - http://www.videolan.org/x264.html - options: cabac=1 ref=1 deblock=1:0:0 analyse=0x3:0x3 me=dia subme=1 psy=1 psy_rd=1.00:0.00 mixed_ref=0 me_range=16 chroma_me=1 trellis=0 8x8dct=1 cqm=0 deadzone=21,11 fast_pskip=1 chroma_qp_offset=0 threads=24 lookahead_threads=4 sliced_threads=0 nr=0 decimate=1 interlaced=0 bluray_compat=0 constrained_intra=0 bframes=3 b_pyramid=2 b_adapt=1 b_bias=0 direct=1 weightb=1 open_gop=0 weightp=1 keyint=250 keyint_min=25 scenecut=40 intra_refresh=0 rc=crf mbtree=0 crf=23.0 qcomp=0.60 qpmin=0 qpmax=69 qpstep=4 ip_ratio=1.40 pb_ratio=1.30 aq=1:1.00
Output #0, mp4, to 'D:\PythonProjects\viral-cutter-ai\benchmarks\runs\20260510_171633\emeritos_gameplay\compare_podcast\cuts_raw\segment_2_16-38_20_17-28_11.mp4':
  Metadata:
    software        : Lavf62.12.101
    encoder         : Lavf62.12.101
  Stream #0:0: Video: h264 (avc1 / 0x31637661), yuv420p(pc, bt470bg/unknown/unknown, progressive), 1080x1920 [SAR 1:1 DAR 9:16], q=2-31, 59.94 fps, 60k tbn
    Metadata:
      encoder         : Lavc62.28.101 libx264
    Side data:
      CPB properties: bitrate max/min/avg: 0/0/0 buffer size: 0 vbv_delay: N/A
  Stream #0:1(eng): Audio: aac (LC) (mp4a / 0x6134706D), 48000 Hz, stereo, fltp, 192 kb/s (default)
    Metadata:
      encoder         : Lavc62.28.101 aac
      handler_name    : SoundHandler
frame=  348 fps=0.0 q=20.0 size=    2304KiB time=00:00:05.80 bitrate=3251.0kbits/s speed=11.3x elapsed=0:00:00.51    frame=  573 fps=555 q=21.0 size=    3328KiB time=00:00:09.55 bitrate=2852.0kbits/s speed=9.26x elapsed=0:00:01.03    frame=  882 fps=574 q=26.0 size=    6144KiB time=00:00:14.71 bitrate=3420.5kbits/s speed=9.58x elapsed=0:00:01.53    frame= 1140 fps=554 q=25.0 size=   10240KiB time=00:00:19.01 bitrate=4410.7kbits/s speed=9.24x elapsed=0:00:02.05    frame= 1418 fps=549 q=25.0 size=   12800KiB time=00:00:23.65 bitrate=4432.4kbits/s speed=9.17x elapsed=0:00:02.58    frame= 1698 fps=549 q=26.0 size=   17664KiB time=00:00:28.32 bitrate=5108.1kbits/s speed=9.16x elapsed=0:00:03.09    frame= 1985 fps=550 q=20.0 size=   22272KiB time=00:00:33.11 bitrate=5509.4kbits/s speed=9.18x elapsed=0:00:03.60    frame= 2405 fps=583 q=23.0 size=   24832KiB time=00:00:40.68 bitrate=5000.3kbits/s speed=9.86x elapsed=0:00:04.12    frame= 2827 fps=609 q=26.0 size=   28928KiB time=00:00:47.72 bitrate=4965.7kbits/s speed=10.3x elapsed=0:00:04.63    [mp4 @ 000001aa97d13800] Starting second pass: moving the moov atom to the beginning of the file
[out#0/mp4 @ 000001aa99c1b440] video:29737KiB audio:1192KiB subtitle:0KiB other streams:0KiB global headers:0KiB muxing overhead: 0.250011%
frame= 2990 fps=619 q=-1.0 Lsize=   31007KiB time=00:00:49.88 bitrate=5092.1kbits/s speed=10.3x elapsed=0:00:04.83    
[libx264 @ 000001aa97ce40c0] frame I:17    Avg QP:15.61  size: 85979
[libx264 @ 000001aa97ce40c0] frame P:1043  Avg QP:17.57  size: 18466
[libx264 @ 000001aa97ce40c0] frame B:1930  Avg QP:19.47  size:  5041
[libx264 @ 000001aa97ce40c0] consecutive B-frames:  8.9% 13.2%  5.8% 72.1%
[libx264 @ 000001aa97ce40c0] mb I  I16..4: 27.6% 46.7% 25.7%
[libx264 @ 000001aa97ce40c0] mb P  I16..4: 15.3% 18.9%  2.1%  P16..4: 21.0%  0.0%  0.0%  0.0%  0.0%    skip:42.7%
[libx264 @ 000001aa97ce40c0] mb B  I16..4:  2.0%  2.9%  0.2%  B16..8: 11.5%  0.0%  0.0%  direct: 5.0%  skip:78.5%  L0:41.7% L1:50.4% BI: 7.9%
[libx264 @ 000001aa97ce40c0] 8x8 transform intra:53.0% inter:51.6%
[libx264 @ 000001aa97ce40c0] coded y,uvDC,uvAC intra: 27.1% 28.6% 8.2% inter: 2.5% 8.1% 0.1%
[libx264 @ 000001aa97ce40c0] i16 v,h,dc,p: 57% 29%  5%  9%
[libx264 @ 000001aa97ce40c0] i8 v,h,dc,ddl,ddr,vr,hd,vl,hu: 16% 27% 17%  6%  6%  6%  9%  5%  9%
[libx264 @ 000001aa97ce40c0] i4 v,h,dc,ddl,ddr,vr,hd,vl,hu: 23% 31% 11%  7%  6%  5%  6%  4%  7%
[libx264 @ 000001aa97ce40c0] i8c dc,h,v,p: 57% 21% 15%  8%
[libx264 @ 000001aa97ce40c0] Weighted P-Frames: Y:14.9% UV:5.0%
[libx264 @ 000001aa97ce40c0] kb/s:4883.47
[aac @ 000001aa9a0eacc0] Qavg: 620.053
W0000 00:00:1778434297.628321   17688 inference_feedback_manager.cc:121] Feedback manager requires a model with a single signature inference. Disabling support for feedback tensors.
ffmpeg version 8.1.1-full_build-www.gyan.dev Copyright (c) 2000-2026 the FFmpeg developers
  built with gcc 15.2.0 (Rev13, Built by MSYS2 project)
  configuration: --enable-gpl --enable-version3 --enable-static --disable-w32threads --disable-autodetect --enable-cairo --enable-fontconfig --enable-iconv --enable-gnutls --enable-lcms2 --enable-libxml2 --enable-gmp --enable-bzlib --enable-lzma --enable-libsnappy --enable-zlib --enable-librist --enable-libsrt --enable-libssh --enable-libzmq --enable-avisynth --enable-libbluray --enable-libcaca --enable-libdvdnav --enable-libdvdread --enable-sdl2 --enable-libaribb24 --enable-libaribcaption --enable-libdav1d --enable-libdavs2 --enable-libopenjpeg --enable-libquirc --enable-libuavs3d --enable-libxevd --enable-libzvbi --enable-liboapv --enable-libqrencode --enable-librav1e --enable-libsvtav1 --enable-libvvenc --enable-libwebp --enable-libx264 --enable-libx265 --enable-libxavs2 --enable-libxeve --enable-libxvid --enable-libaom --enable-libjxl --enable-libsvtjpegxs --enable-libvpx --enable-mediafoundation --enable-libass --enable-frei0r --enable-libfreetype --enable-libfribidi --enable-libharfbuzz --enable-liblensfun --enable-libvidstab --enable-libvmaf --enable-libzimg --enable-amf --enable-cuda-llvm --enable-cuvid --enable-dxva2 --enable-d3d11va --enable-d3d12va --enable-ffnvcodec --enable-libvpl --enable-nvdec --enable-nvenc --enable-vaapi --enable-libshaderc --enable-vulkan --enable-libplacebo --enable-opencl --enable-libcdio --enable-openal --enable-libgme --enable-libmodplug --enable-libopenmpt --enable-libopencore-amrwb --enable-libmp3lame --enable-libshine --enable-libtheora --enable-libtwolame --enable-libvo-amrwbenc --enable-libcodec2 --enable-libilbc --enable-libgsm --enable-liblc3 --enable-libopencore-amrnb --enable-libopus --enable-libspeex --enable-libvorbis --enable-ladspa --enable-libbs2b --enable-libflite --enable-libmysofa --enable-librubberband --enable-libsoxr --enable-chromaprint --enable-whisper
  libavutil      60. 26.101 / 60. 26.101
  libavcodec     62. 28.101 / 62. 28.101
  libavformat    62. 12.101 / 62. 12.101
  libavdevice    62.  3.101 / 62.  3.101
  libavfilter    11. 14.101 / 11. 14.101
  libswscale      9.  5.101 /  9.  5.101
  libswresample   6.  3.101 /  6.  3.101
Input #0, avi, from 'C:\Users\Macie\AppData\Local\Temp\face_track_hjwwhc3j\segment_3_04-58_65_05-58_35_silent.avi':
  Metadata:
    software        : Lavf62.12.101
  Duration: 00:00:59.69, start: 0.000000, bitrate: 11502 kb/s
  Stream #0:0: Video: h264 (High) (H264 / 0x34363248), yuvj420p(pc, bt470bg/unknown/unknown, progressive), 1080x1920 [SAR 1:1 DAR 9:16], 11493 kb/s, 59.94 fps, 59.94 tbr, 59.94 tbn
Input #1, mov,mp4,m4a,3gp,3g2,mj2, from 'C:\Users\Macie\AppData\Local\Temp\face_track_hjwwhc3j\segment_3_04-58_65_05-58_35_audio.m4a':
  Metadata:
    major_brand     : M4A 
    minor_version   : 512
    compatible_brands: M4A isomiso2
    encoder         : Lavf62.12.101
  Duration: 00:00:59.70, start: 0.000000, bitrate: 198 kb/s
  Stream #1:0[0x1](eng): Audio: aac (LC) (mp4a / 0x6134706D), 48000 Hz, stereo, fltp, 196 kb/s (default)
    Metadata:
      handler_name    : SoundHandler
Stream mapping:
  Stream #0:0 -> #0:0 (h264 (native) -> h264 (libx264))
  Stream #1:0 -> #0:1 (aac (native) -> aac (native))
Press [q] to stop, [?] for help
[swscaler @ 0000024c5c99ba00] deprecated pixel format used, make sure you did set range correctly
[libx264 @ 0000024c5a8dc300] using SAR=1/1
[libx264 @ 0000024c5a8dc300] using cpu capabilities: MMX2 SSE2Fast SSSE3 SSE4.2 AVX FMA3 BMI2 AVX2 AVX512
[libx264 @ 0000024c5a8dc300] profile High, level 4.2, 4:2:0, 8-bit
[libx264 @ 0000024c5a8dc300] 264 - core 165 r3223 0480cb0 - H.264/MPEG-4 AVC codec - Copyleft 2003-2025 - http://www.videolan.org/x264.html - options: cabac=1 ref=1 deblock=1:0:0 analyse=0x3:0x3 me=dia subme=1 psy=1 psy_rd=1.00:0.00 mixed_ref=0 me_range=16 chroma_me=1 trellis=0 8x8dct=1 cqm=0 deadzone=21,11 fast_pskip=1 chroma_qp_offset=0 threads=24 lookahead_threads=4 sliced_threads=0 nr=0 decimate=1 interlaced=0 bluray_compat=0 constrained_intra=0 bframes=3 b_pyramid=2 b_adapt=1 b_bias=0 direct=1 weightb=1 open_gop=0 weightp=1 keyint=250 keyint_min=25 scenecut=40 intra_refresh=0 rc=crf mbtree=0 crf=23.0 qcomp=0.60 qpmin=0 qpmax=69 qpstep=4 ip_ratio=1.40 pb_ratio=1.30 aq=1:1.00
Output #0, mp4, to 'D:\PythonProjects\viral-cutter-ai\benchmarks\runs\20260510_171633\emeritos_gameplay\compare_podcast\cuts_raw\segment_3_04-58_65_05-58_35.mp4':
  Metadata:
    software        : Lavf62.12.101
    encoder         : Lavf62.12.101
  Stream #0:0: Video: h264 (avc1 / 0x31637661), yuv420p(pc, bt470bg/unknown/unknown, progressive), 1080x1920 [SAR 1:1 DAR 9:16], q=2-31, 59.94 fps, 60k tbn
    Metadata:
      encoder         : Lavc62.28.101 libx264
    Side data:
      CPB properties: bitrate max/min/avg: 0/0/0 buffer size: 0 vbv_delay: N/A
  Stream #0:1(eng): Audio: aac (LC) (mp4a / 0x6134706D), 48000 Hz, stereo, fltp, 192 kb/s (default)
    Metadata:
      encoder         : Lavc62.28.101 aac
      handler_name    : SoundHandler
frame=  286 fps=0.0 q=26.0 size=    2560KiB time=00:00:04.77 bitrate=4395.3kbits/s speed=9.41x elapsed=0:00:00.50    frame=  567 fps=556 q=20.0 size=    7680KiB time=00:00:09.45 bitrate=6651.0kbits/s speed=9.28x elapsed=0:00:01.01    frame=  696 fps=449 q=22.0 size=    8960KiB time=00:00:11.61 bitrate=6321.3kbits/s speed=7.49x elapsed=0:00:01.54    frame= 1062 fps=517 q=26.0 size=   12288KiB time=00:00:17.71 bitrate=5681.5kbits/s speed=8.62x elapsed=0:00:02.05    frame= 1446 fps=561 q=21.0 size=   15104KiB time=00:00:24.12 bitrate=5129.0kbits/s speed=9.37x elapsed=0:00:02.57    frame= 1842 fps=595 q=25.0 size=   17664KiB time=00:00:30.73 bitrate=4708.8kbits/s speed=9.93x elapsed=0:00:03.09    frame= 2149 fps=597 q=29.0 size=   22016KiB time=00:00:35.85 bitrate=5030.5kbits/s speed=9.96x elapsed=0:00:03.59    frame= 2414 fps=585 q=28.0 size=   27648KiB time=00:00:40.27 bitrate=5623.9kbits/s speed=9.75x elapsed=0:00:04.12    frame= 2743 fps=590 q=25.0 size=   32512KiB time=00:00:45.76 bitrate=5820.0kbits/s speed=9.84x elapsed=0:00:04.65    frame= 3080 fps=595 q=25.0 size=   36864KiB time=00:00:51.94 bitrate=5813.5kbits/s speed=  10x elapsed=0:00:05.17    frame= 3471 fps=611 q=27.0 size=   42240KiB time=00:00:58.43 bitrate=5921.9kbits/s speed=10.3x elapsed=0:00:05.68    [mp4 @ 0000024c587397c0] Starting second pass: moving the moov atom to the beginning of the file
[out#0/mp4 @ 0000024c5ac47dc0] video:42255KiB audio:1430KiB subtitle:0KiB other streams:0KiB global headers:0KiB muxing overhead: 0.211984%
frame= 3577 fps=615 q=-1.0 Lsize=   43777KiB time=00:00:59.67 bitrate=6009.5kbits/s speed=10.3x elapsed=0:00:05.81    
[libx264 @ 0000024c5a8dc300] frame I:22    Avg QP:16.96  size: 77766
[libx264 @ 0000024c5a8dc300] frame P:1236  Avg QP:19.64  size: 22229
[libx264 @ 0000024c5a8dc300] frame B:2319  Avg QP:21.00  size:  6073
[libx264 @ 0000024c5a8dc300] consecutive B-frames:  7.6% 16.3%  4.9% 71.2%
[libx264 @ 0000024c5a8dc300] mb I  I16..4: 23.0% 48.2% 28.8%
[libx264 @ 0000024c5a8dc300] mb P  I16..4: 10.4% 22.3%  2.6%  P16..4: 27.0%  0.0%  0.0%  0.0%  0.0%    skip:37.8%
[libx264 @ 0000024c5a8dc300] mb B  I16..4:  1.8%  3.0%  0.2%  B16..8: 15.6%  0.0%  0.0%  direct: 5.1%  skip:74.2%  L0:42.4% L1:49.9% BI: 7.8%
[libx264 @ 0000024c5a8dc300] 8x8 transform intra:62.1% inter:49.4%
[libx264 @ 0000024c5a8dc300] coded y,uvDC,uvAC intra: 32.7% 29.2% 7.0% inter: 3.4% 8.0% 0.1%
[libx264 @ 0000024c5a8dc300] i16 v,h,dc,p: 45% 33%  7% 14%
[libx264 @ 0000024c5a8dc300] i8 v,h,dc,ddl,ddr,vr,hd,vl,hu: 16% 26% 16%  6%  7%  6%  9%  5%  9%
[libx264 @ 0000024c5a8dc300] i4 v,h,dc,ddl,ddr,vr,hd,vl,hu: 21% 30% 11%  7%  6%  5%  7%  4%  8%
[libx264 @ 0000024c5a8dc300] i8c dc,h,v,p: 54% 21% 17%  8%
[libx264 @ 0000024c5a8dc300] Weighted P-Frames: Y:2.8% UV:2.1%
[libx264 @ 0000024c5a8dc300] kb/s:5800.40
[aac @ 0000024c5ab492c0] Qavg: 979.181
W0000 00:00:1778434367.816070   33252 inference_feedback_manager.cc:121] Feedback manager requires a model with a single signature inference. Disabling support for feedback tensors.
ffmpeg version 8.1.1-full_build-www.gyan.dev Copyright (c) 2000-2026 the FFmpeg developers
  built with gcc 15.2.0 (Rev13, Built by MSYS2 project)
  configuration: --enable-gpl --enable-version3 --enable-static --disable-w32threads --disable-autodetect --enable-cairo --enable-fontconfig --enable-iconv --enable-gnutls --enable-lcms2 --enable-libxml2 --enable-gmp --enable-bzlib --enable-lzma --enable-libsnappy --enable-zlib --enable-librist --enable-libsrt --enable-libssh --enable-libzmq --enable-avisynth --enable-libbluray --enable-libcaca --enable-libdvdnav --enable-libdvdread --enable-sdl2 --enable-libaribb24 --enable-libaribcaption --enable-libdav1d --enable-libdavs2 --enable-libopenjpeg --enable-libquirc --enable-libuavs3d --enable-libxevd --enable-libzvbi --enable-liboapv --enable-libqrencode --enable-librav1e --enable-libsvtav1 --enable-libvvenc --enable-libwebp --enable-libx264 --enable-libx265 --enable-libxavs2 --enable-libxeve --enable-libxvid --enable-libaom --enable-libjxl --enable-libsvtjpegxs --enable-libvpx --enable-mediafoundation --enable-libass --enable-frei0r --enable-libfreetype --enable-libfribidi --enable-libharfbuzz --enable-liblensfun --enable-libvidstab --enable-libvmaf --enable-libzimg --enable-amf --enable-cuda-llvm --enable-cuvid --enable-dxva2 --enable-d3d11va --enable-d3d12va --enable-ffnvcodec --enable-libvpl --enable-nvdec --enable-nvenc --enable-vaapi --enable-libshaderc --enable-vulkan --enable-libplacebo --enable-opencl --enable-libcdio --enable-openal --enable-libgme --enable-libmodplug --enable-libopenmpt --enable-libopencore-amrwb --enable-libmp3lame --enable-libshine --enable-libtheora --enable-libtwolame --enable-libvo-amrwbenc --enable-libcodec2 --enable-libilbc --enable-libgsm --enable-liblc3 --enable-libopencore-amrnb --enable-libopus --enable-libspeex --enable-libvorbis --enable-ladspa --enable-libbs2b --enable-libflite --enable-libmysofa --enable-librubberband --enable-libsoxr --enable-chromaprint --enable-whisper
  libavutil      60. 26.101 / 60. 26.101
  libavcodec     62. 28.101 / 62. 28.101
  libavformat    62. 12.101 / 62. 12.101
  libavdevice    62.  3.101 / 62.  3.101
  libavfilter    11. 14.101 / 11. 14.101
  libswscale      9.  5.101 /  9.  5.101
  libswresample   6.  3.101 /  6.  3.101
Input #0, avi, from 'C:\Users\Macie\AppData\Local\Temp\face_track_ixi2vrxh\segment_4_00-06_56_00-45_74_silent.avi':
  Metadata:
    software        : Lavf62.12.101
  Duration: 00:00:39.17, start: 0.000000, bitrate: 10297 kb/s
  Stream #0:0: Video: h264 (High) (H264 / 0x34363248), yuvj420p(pc, bt470bg/unknown/unknown, progressive), 1080x1920 [SAR 1:1 DAR 9:16], 10289 kb/s, 59.94 fps, 59.94 tbr, 59.94 tbn
Input #1, mov,mp4,m4a,3gp,3g2,mj2, from 'C:\Users\Macie\AppData\Local\Temp\face_track_ixi2vrxh\segment_4_00-06_56_00-45_74_audio.m4a':
  Metadata:
    major_brand     : M4A 
    minor_version   : 512
    compatible_brands: M4A isomiso2
    encoder         : Lavf62.12.101
  Duration: 00:00:39.18, start: 0.000000, bitrate: 196 kb/s
  Stream #1:0[0x1](eng): Audio: aac (LC) (mp4a / 0x6134706D), 48000 Hz, stereo, fltp, 194 kb/s (default)
    Metadata:
      handler_name    : SoundHandler
Stream mapping:
  Stream #0:0 -> #0:0 (h264 (native) -> h264 (libx264))
  Stream #1:0 -> #0:1 (aac (native) -> aac (native))
Press [q] to stop, [?] for help
[swscaler @ 00000219a9f80440] deprecated pixel format used, make sure you did set range correctly
[libx264 @ 00000219a61ee9c0] using SAR=1/1
[libx264 @ 00000219a61ee9c0] using cpu capabilities: MMX2 SSE2Fast SSSE3 SSE4.2 AVX FMA3 BMI2 AVX2 AVX512
[libx264 @ 00000219a61ee9c0] profile High, level 4.2, 4:2:0, 8-bit
[libx264 @ 00000219a61ee9c0] 264 - core 165 r3223 0480cb0 - H.264/MPEG-4 AVC codec - Copyleft 2003-2025 - http://www.videolan.org/x264.html - options: cabac=1 ref=1 deblock=1:0:0 analyse=0x3:0x3 me=dia subme=1 psy=1 psy_rd=1.00:0.00 mixed_ref=0 me_range=16 chroma_me=1 trellis=0 8x8dct=1 cqm=0 deadzone=21,11 fast_pskip=1 chroma_qp_offset=0 threads=24 lookahead_threads=4 sliced_threads=0 nr=0 decimate=1 interlaced=0 bluray_compat=0 constrained_intra=0 bframes=3 b_pyramid=2 b_adapt=1 b_bias=0 direct=1 weightb=1 open_gop=0 weightp=1 keyint=250 keyint_min=25 scenecut=40 intra_refresh=0 rc=crf mbtree=0 crf=23.0 qcomp=0.60 qpmin=0 qpmax=69 qpstep=4 ip_ratio=1.40 pb_ratio=1.30 aq=1:1.00
Output #0, mp4, to 'D:\PythonProjects\viral-cutter-ai\benchmarks\runs\20260510_171633\emeritos_gameplay\compare_podcast\cuts_raw\segment_4_00-06_56_00-45_74.mp4':
  Metadata:
    software        : Lavf62.12.101
    encoder         : Lavf62.12.101
  Stream #0:0: Video: h264 (avc1 / 0x31637661), yuv420p(pc, bt470bg/unknown/unknown, progressive), 1080x1920 [SAR 1:1 DAR 9:16], q=2-31, 59.94 fps, 60k tbn
    Metadata:
      encoder         : Lavc62.28.101 libx264
    Side data:
      CPB properties: bitrate max/min/avg: 0/0/0 buffer size: 0 vbv_delay: N/A
  Stream #0:1(eng): Audio: aac (LC) (mp4a / 0x6134706D), 48000 Hz, stereo, fltp, 192 kb/s (default)
    Metadata:
      encoder         : Lavc62.28.101 aac
      handler_name    : SoundHandler
frame=  330 fps=0.0 q=24.0 size=    2560KiB time=00:00:05.50 bitrate=3809.3kbits/s speed=10.6x elapsed=0:00:00.52    frame=  573 fps=551 q=24.0 size=    5632KiB time=00:00:09.55 bitrate=4826.3kbits/s speed= 9.2x elapsed=0:00:01.03    frame=  773 fps=501 q=24.0 size=    8192KiB time=00:00:12.89 bitrate=5203.8kbits/s speed=8.36x elapsed=0:00:01.54    frame= 1092 fps=530 q=24.0 size=   11776KiB time=00:00:18.21 bitrate=5295.2kbits/s speed=8.84x elapsed=0:00:02.06    frame= 1393 fps=539 q=26.0 size=   15616KiB time=00:00:23.23 bitrate=5504.6kbits/s speed=8.99x elapsed=0:00:02.58    frame= 1736 fps=561 q=25.0 size=   19712KiB time=00:00:29.52 bitrate=5469.2kbits/s speed=9.54x elapsed=0:00:03.09    frame= 2140 fps=593 q=23.0 size=   24064KiB time=00:00:36.26 bitrate=5435.6kbits/s speed=  10x elapsed=0:00:03.60    [mp4 @ 00000219a8120ac0] Starting second pass: moving the moov atom to the beginning of the file
[out#0/mp4 @ 00000219a8315dc0] video:25432KiB audio:941KiB subtitle:0KiB other streams:0KiB global headers:0KiB muxing overhead: 0.232631%
frame= 2347 fps=610 q=-1.0 Lsize=   26434KiB time=00:00:39.15 bitrate=5530.4kbits/s speed=10.2x elapsed=0:00:03.84    
[libx264 @ 00000219a61ee9c0] frame I:17    Avg QP:16.76  size: 70408
[libx264 @ 00000219a61ee9c0] frame P:792   Avg QP:19.20  size: 19859
[libx264 @ 00000219a61ee9c0] frame B:1538  Avg QP:20.96  size:  5927
[libx264 @ 00000219a61ee9c0] consecutive B-frames:  7.2% 14.7%  4.9% 73.3%
[libx264 @ 00000219a61ee9c0] mb I  I16..4: 25.8% 49.6% 24.5%
[libx264 @ 00000219a61ee9c0] mb P  I16..4:  8.3% 16.7%  2.1%  P16..4: 30.4%  0.0%  0.0%  0.0%  0.0%    skip:42.5%
[libx264 @ 00000219a61ee9c0] mb B  I16..4:  1.3%  1.9%  0.1%  B16..8: 17.4%  0.0%  0.0%  direct: 7.3%  skip:72.0%  L0:42.4% L1:49.5% BI: 8.1%
[libx264 @ 00000219a61ee9c0] 8x8 transform intra:60.2% inter:51.3%
[libx264 @ 00000219a61ee9c0] coded y,uvDC,uvAC intra: 35.0% 48.7% 15.3% inter: 2.7% 12.9% 0.1%
[libx264 @ 00000219a61ee9c0] i16 v,h,dc,p: 51% 27%  8% 13%
[libx264 @ 00000219a61ee9c0] i8 v,h,dc,ddl,ddr,vr,hd,vl,hu: 19% 23% 17%  6%  7%  7%  8%  5%  7%
[libx264 @ 00000219a61ee9c0] i4 v,h,dc,ddl,ddr,vr,hd,vl,hu: 27% 25% 10%  7%  6%  7%  6%  6%  6%
[libx264 @ 00000219a61ee9c0] i8c dc,h,v,p: 42% 24% 19% 15%
[libx264 @ 00000219a61ee9c0] Weighted P-Frames: Y:2.0% UV:0.3%
[libx264 @ 00000219a61ee9c0] kb/s:5320.54
[aac @ 00000219a8577700] Qavg: 891.476
W0000 00:00:1778434412.203866   33500 inference_feedback_manager.cc:121] Feedback manager requires a model with a single signature inference. Disabling support for feedback tensors.
ffmpeg version 8.1.1-full_build-www.gyan.dev Copyright (c) 2000-2026 the FFmpeg developers
  built with gcc 15.2.0 (Rev13, Built by MSYS2 project)
  configuration: --enable-gpl --enable-version3 --enable-static --disable-w32threads --disable-autodetect --enable-cairo --enable-fontconfig --enable-iconv --enable-gnutls --enable-lcms2 --enable-libxml2 --enable-gmp --enable-bzlib --enable-lzma --enable-libsnappy --enable-zlib --enable-librist --enable-libsrt --enable-libssh --enable-libzmq --enable-avisynth --enable-libbluray --enable-libcaca --enable-libdvdnav --enable-libdvdread --enable-sdl2 --enable-libaribb24 --enable-libaribcaption --enable-libdav1d --enable-libdavs2 --enable-libopenjpeg --enable-libquirc --enable-libuavs3d --enable-libxevd --enable-libzvbi --enable-liboapv --enable-libqrencode --enable-librav1e --enable-libsvtav1 --enable-libvvenc --enable-libwebp --enable-libx264 --enable-libx265 --enable-libxavs2 --enable-libxeve --enable-libxvid --enable-libaom --enable-libjxl --enable-libsvtjpegxs --enable-libvpx --enable-mediafoundation --enable-libass --enable-frei0r --enable-libfreetype --enable-libfribidi --enable-libharfbuzz --enable-liblensfun --enable-libvidstab --enable-libvmaf --enable-libzimg --enable-amf --enable-cuda-llvm --enable-cuvid --enable-dxva2 --enable-d3d11va --enable-d3d12va --enable-ffnvcodec --enable-libvpl --enable-nvdec --enable-nvenc --enable-vaapi --enable-libshaderc --enable-vulkan --enable-libplacebo --enable-opencl --enable-libcdio --enable-openal --enable-libgme --enable-libmodplug --enable-libopenmpt --enable-libopencore-amrwb --enable-libmp3lame --enable-libshine --enable-libtheora --enable-libtwolame --enable-libvo-amrwbenc --enable-libcodec2 --enable-libilbc --enable-libgsm --enable-liblc3 --enable-libopencore-amrnb --enable-libopus --enable-libspeex --enable-libvorbis --enable-ladspa --enable-libbs2b --enable-libflite --enable-libmysofa --enable-librubberband --enable-libsoxr --enable-chromaprint --enable-whisper
  libavutil      60. 26.101 / 60. 26.101
  libavcodec     62. 28.101 / 62. 28.101
  libavformat    62. 12.101 / 62. 12.101
  libavdevice    62.  3.101 / 62.  3.101
  libavfilter    11. 14.101 / 11. 14.101
  libswscale      9.  5.101 /  9.  5.101
  libswresample   6.  3.101 /  6.  3.101
Input #0, avi, from 'C:\Users\Macie\AppData\Local\Temp\face_track_k5nrgc22\segment_5_07-54_74_08-25_84_silent.avi':
  Metadata:
    software        : Lavf62.12.101
  Duration: 00:00:31.10, start: 0.000000, bitrate: 13546 kb/s
  Stream #0:0: Video: h264 (High) (H264 / 0x34363248), yuvj420p(pc, bt470bg/unknown/unknown, progressive), 1080x1920 [SAR 1:1 DAR 9:16], 13540 kb/s, 59.94 fps, 59.94 tbr, 59.94 tbn
Input #1, mov,mp4,m4a,3gp,3g2,mj2, from 'C:\Users\Macie\AppData\Local\Temp\face_track_k5nrgc22\segment_5_07-54_74_08-25_84_audio.m4a':
  Metadata:
    major_brand     : M4A 
    minor_version   : 512
    compatible_brands: M4A isomiso2
    encoder         : Lavf62.12.101
  Duration: 00:00:31.10, start: 0.000000, bitrate: 197 kb/s
  Stream #1:0[0x1](eng): Audio: aac (LC) (mp4a / 0x6134706D), 48000 Hz, stereo, fltp, 195 kb/s (default)
    Metadata:
      handler_name    : SoundHandler
Stream mapping:
  Stream #0:0 -> #0:0 (h264 (native) -> h264 (libx264))
  Stream #1:0 -> #0:1 (aac (native) -> aac (native))
Press [q] to stop, [?] for help
[swscaler @ 00000173e135e980] deprecated pixel format used, make sure you did set range correctly
[libx264 @ 00000173df8aa4c0] using SAR=1/1
[libx264 @ 00000173df8aa4c0] using cpu capabilities: MMX2 SSE2Fast SSSE3 SSE4.2 AVX FMA3 BMI2 AVX2 AVX512
[libx264 @ 00000173df8aa4c0] profile High, level 4.2, 4:2:0, 8-bit
[libx264 @ 00000173df8aa4c0] 264 - core 165 r3223 0480cb0 - H.264/MPEG-4 AVC codec - Copyleft 2003-2025 - http://www.videolan.org/x264.html - options: cabac=1 ref=1 deblock=1:0:0 analyse=0x3:0x3 me=dia subme=1 psy=1 psy_rd=1.00:0.00 mixed_ref=0 me_range=16 chroma_me=1 trellis=0 8x8dct=1 cqm=0 deadzone=21,11 fast_pskip=1 chroma_qp_offset=0 threads=24 lookahead_threads=4 sliced_threads=0 nr=0 decimate=1 interlaced=0 bluray_compat=0 constrained_intra=0 bframes=3 b_pyramid=2 b_adapt=1 b_bias=0 direct=1 weightb=1 open_gop=0 weightp=1 keyint=250 keyint_min=25 scenecut=40 intra_refresh=0 rc=crf mbtree=0 crf=23.0 qcomp=0.60 qpmin=0 qpmax=69 qpstep=4 ip_ratio=1.40 pb_ratio=1.30 aq=1:1.00
Output #0, mp4, to 'D:\PythonProjects\viral-cutter-ai\benchmarks\runs\20260510_171633\emeritos_gameplay\compare_podcast\cuts_raw\segment_5_07-54_74_08-25_84.mp4':
  Metadata:
    software        : Lavf62.12.101
    encoder         : Lavf62.12.101
  Stream #0:0: Video: h264 (avc1 / 0x31637661), yuv420p(pc, bt470bg/unknown/unknown, progressive), 1080x1920 [SAR 1:1 DAR 9:16], q=2-31, 59.94 fps, 60k tbn
    Metadata:
      encoder         : Lavc62.28.101 libx264
    Side data:
      CPB properties: bitrate max/min/avg: 0/0/0 buffer size: 0 vbv_delay: N/A
  Stream #0:1(eng): Audio: aac (LC) (mp4a / 0x6134706D), 48000 Hz, stereo, fltp, 192 kb/s (default)
    Metadata:
      encoder         : Lavc62.28.101 aac
      handler_name    : SoundHandler
frame=  234 fps=0.0 q=28.0 size=    3584KiB time=00:00:03.90 bitrate=7520.8kbits/s speed=7.41x elapsed=0:00:00.52    frame=  486 fps=471 q=26.0 size=    8448KiB time=00:00:08.10 bitrate=8535.5kbits/s speed=7.85x elapsed=0:00:01.03    frame=  599 fps=386 q=23.0 size=   10240KiB time=00:00:09.99 bitrate=8394.3kbits/s speed=6.44x elapsed=0:00:01.55    frame=  933 fps=452 q=19.0 size=   14080KiB time=00:00:15.56 bitrate=7410.2kbits/s speed=7.55x elapsed=0:00:02.06    frame= 1273 fps=493 q=27.0 size=   17664KiB time=00:00:21.80 bitrate=6637.0kbits/s speed=8.44x elapsed=0:00:02.58    frame= 1622 fps=524 q=27.0 size=   23296KiB time=00:00:27.62 bitrate=6907.9kbits/s speed=8.92x elapsed=0:00:03.09    [mp4 @ 00000173dd2f3fc0] Starting second pass: moving the moov atom to the beginning of the file
[out#0/mp4 @ 00000173df7afec0] video:25730KiB audio:745KiB subtitle:0KiB other streams:0KiB global headers:0KiB muxing overhead: 0.182130%
frame= 1862 fps=555 q=-1.0 Lsize=   26523KiB time=00:00:31.06 bitrate=6994.3kbits/s speed=9.26x elapsed=0:00:03.35    
[libx264 @ 00000173df8aa4c0] frame I:9     Avg QP:18.40  size: 85379
[libx264 @ 00000173df8aa4c0] frame P:708   Avg QP:20.31  size: 24319
[libx264 @ 00000173df8aa4c0] frame B:1145  Avg QP:21.96  size:  7301
[libx264 @ 00000173df8aa4c0] consecutive B-frames: 11.8% 16.0%  7.7% 64.4%
[libx264 @ 00000173df8aa4c0] mb I  I16..4: 14.9% 52.8% 32.3%
[libx264 @ 00000173df8aa4c0] mb P  I16..4: 10.3% 27.8%  2.7%  P16..4: 29.1%  0.0%  0.0%  0.0%  0.0%    skip:30.1%
[libx264 @ 00000173df8aa4c0] mb B  I16..4:  1.8%  3.3%  0.2%  B16..8: 20.6%  0.0%  0.0%  direct: 5.5%  skip:68.6%  L0:41.9% L1:50.6% BI: 7.5%
[libx264 @ 00000173df8aa4c0] 8x8 transform intra:66.8% inter:51.5%
[libx264 @ 00000173df8aa4c0] coded y,uvDC,uvAC intra: 35.0% 28.4% 5.9% inter: 3.8% 8.3% 0.1%
[libx264 @ 00000173df8aa4c0] i16 v,h,dc,p: 43% 32%  9% 16%
[libx264 @ 00000173df8aa4c0] i8 v,h,dc,ddl,ddr,vr,hd,vl,hu: 16% 26% 16%  6%  7%  6%  9%  5%  9%
[libx264 @ 00000173df8aa4c0] i4 v,h,dc,ddl,ddr,vr,hd,vl,hu: 22% 32% 11%  7%  6%  5%  7%  4%  7%
[libx264 @ 00000173df8aa4c0] i8c dc,h,v,p: 53% 22% 17%  8%
[libx264 @ 00000173df8aa4c0] Weighted P-Frames: Y:0.1% UV:0.0%
[libx264 @ 00000173df8aa4c0] kb/s:6784.99
[aac @ 00000173df6e5740] Qavg: 676.318
Cutting segment 1: 1067.41s - 1115.79s -> D:\PythonProjects\viral-cutter-ai\benchmarks\runs\20260510_171633\emeritos_gameplay\compare_podcast\cuts_raw\segment_1_17-47_41_18-35_79.mp4
Cutting segment 2: 998.20s - 1048.11s -> D:\PythonProjects\viral-cutter-ai\benchmarks\runs\20260510_171633\emeritos_gameplay\compare_podcast\cuts_raw\segment_2_16-38_20_17-28_11.mp4
Cutting segment 3: 298.65s - 358.35s -> D:\PythonProjects\viral-cutter-ai\benchmarks\runs\20260510_171633\emeritos_gameplay\compare_podcast\cuts_raw\segment_3_04-58_65_05-58_35.mp4
Cutting segment 4: 6.56s - 45.74s -> D:\PythonProjects\viral-cutter-ai\benchmarks\runs\20260510_171633\emeritos_gameplay\compare_podcast\cuts_raw\segment_4_00-06_56_00-45_74.mp4
Cutting segment 5: 474.74s - 505.84s -> D:\PythonProjects\viral-cutter-ai\benchmarks\runs\20260510_171633\emeritos_gameplay\compare_podcast\cuts_raw\segment_5_07-54_74_08-25_84.mp4
Done. Files saved in D:\PythonProjects\viral-cutter-ai\benchmarks\runs\20260510_171633\emeritos_gameplay\compare_podcast\cuts_raw
$ D:\PythonProjects\viral-cutter-ai\.venv\Scripts\python.exe D:\PythonProjects\viral-cutter-ai\cutter.py --video "D:\PythonProjects\viral-cutter-ai\input\EMERITOS BANDITOS BEZ MVP MAJORA W ESEA INTERMEDIATE!.mp4" --windows D:\PythonProjects\viral-cutter-ai\benchmarks\runs\20260510_171633\emeritos_gameplay\compare_podcast\top_windows.json --transcript D:\PythonProjects\viral-cutter-ai\benchmarks\runs\20260510_171633\emeritos_gameplay\shared\transcript.json --output-dir D:\PythonProjects\viral-cutter-ai\benchmarks\runs\20260510_171633\emeritos_gameplay\compare_podcast\cuts_raw --cutting-log D:\PythonProjects\viral-cutter-ai\benchmarks\runs\20260510_171633\emeritos_gameplay\compare_podcast\cutting_logic.json

